<svg xmlns="http://www.w3.org/2000/svg" width="70.104" height="39.285" viewBox="0 0 70.104 39.285">
  <g id="Logo" transform="translate(-81.5 -68)">
    <path id="Tracé_480" data-name="Tracé 480" d="M85.4,81.1h0v0Z" transform="translate(-3.535 -11.874)"/>
    <path id="Tracé_481" data-name="Tracé 481" d="M85.4,308.419v0Z" transform="translate(-3.535 -217.902)"/>
    <rect id="Rectangle_1625" data-name="Rectangle 1625" height="0.084" transform="translate(81.5 69.816)"/>
    <g id="Groupe_641" data-name="Groupe 641" transform="translate(81.762 68)">
      <g id="Groupe_629" data-name="Groupe 629" transform="translate(0)">
        <path id="Tracé_482" data-name="Tracé 482" d="M404.413,69.151a1.193,1.193,0,0,1-.1.487l-.009.028-9.883,21.206-.019.037a1.154,1.154,0,0,1-2.2-.487,1.193,1.193,0,0,1,.1-.487l.009-.009L402.195,68.7l.019-.037a1.154,1.154,0,0,1,2.2.487Z" transform="translate(-363.385 -68)" fill="#ffd103"/>
        <path id="Tracé_483" data-name="Tracé 483" d="M193.571,183.4a1.158,1.158,0,0,0-.571.88h0c.009-.047.009-.094.019-.14.009-.019.009-.037.019-.056s.009-.037.019-.056a1.074,1.074,0,0,1,.515-.627Z" transform="translate(-182.827 -172.6)"/>
        <path id="Tracé_484" data-name="Tracé 484" d="M217.5,192.847h0V192.8h0Z" transform="translate(-205.034 -181.121)"/>
        <path id="Tracé_485" data-name="Tracé 485" d="M193.571,183.4a1.158,1.158,0,0,0-.571.88h0c.009-.047.009-.094.019-.14.009-.019.009-.037.019-.056s.009-.037.019-.056a1.147,1.147,0,0,1,.515-.627Z" transform="translate(-182.827 -172.6)"/>
        <path id="Tracé_486" data-name="Tracé 486" d="M193.571,196.08h0a1.074,1.074,0,0,1-.515-.627c-.009-.019-.009-.037-.019-.056s-.009-.037-.019-.056a.722.722,0,0,1-.019-.14h0A1.142,1.142,0,0,0,193.571,196.08Z" transform="translate(-182.827 -183.296)"/>
        <path id="Tracé_487" data-name="Tracé 487" d="M217.5,194.656v0Z" transform="translate(-205.034 -182.752)"/>
        <path id="Tracé_488" data-name="Tracé 488" d="M217.5,192.847h0v0Z" transform="translate(-205.034 -181.121)"/>
        <path id="Tracé_489" data-name="Tracé 489" d="M207.141,123.7a1.15,1.15,0,0,1-1.151,1.151,1.092,1.092,0,0,1-.571-.159l-.037-.019-11.81-6.8h0a1.158,1.158,0,0,1-.571-.88v-.225a1.158,1.158,0,0,1,.571-.88h0l11.81-6.8.037-.019a1.187,1.187,0,0,1,.571-.159,1.152,1.152,0,0,1,.571,2.152l-10.107,5.83,10.107,5.83A1.1,1.1,0,0,1,207.141,123.7Z" transform="translate(-182.827 -105.072)"/>
        <path id="Tracé_490" data-name="Tracé 490" d="M570.9,123.7a1.15,1.15,0,0,0,1.151,1.151,1.092,1.092,0,0,0,.571-.159l.037-.019,11.811-6.8h0a1.158,1.158,0,0,0,.571-.88v-.225a1.158,1.158,0,0,0-.571-.88h0l-11.811-6.8-.037-.019a1.187,1.187,0,0,0-.571-.159,1.152,1.152,0,0,0-.571,2.152l10.107,5.83-10.107,5.83A1.1,1.1,0,0,0,570.9,123.7Z" transform="translate(-525.361 -105.072)" fill="#ffd103"/>
        <path id="Tracé_491" data-name="Tracé 491" d="M89.953,90.423A1.15,1.15,0,0,1,88.8,91.574h-3.35A1.15,1.15,0,0,1,84.3,90.423V69.151A1.15,1.15,0,0,1,85.451,68H88.8a1.151,1.151,0,0,1,0,2.3H86.6v18.97h2.2A1.15,1.15,0,0,1,89.953,90.423Z" transform="translate(-84.3 -68)"/>
        <path id="Tracé_492" data-name="Tracé 492" d="M775.852,69.151V90.423a1.15,1.15,0,0,1-1.151,1.151h-3.35a1.151,1.151,0,0,1,0-2.3h2.2V70.3h-2.2a1.151,1.151,0,0,1,0-2.3h3.35A1.15,1.15,0,0,1,775.852,69.151Z" transform="translate(-706.01 -68)"/>
        <path id="Tracé_493" data-name="Tracé 493" d="M217.5,194.656v0Z" transform="translate(-205.034 -182.752)"/>
        <path id="Tracé_494" data-name="Tracé 494" d="M193.571,196.08h0a1.074,1.074,0,0,1-.515-.627c-.009-.019-.009-.037-.019-.056s-.009-.037-.019-.056a.722.722,0,0,1-.019-.14h0A1.142,1.142,0,0,0,193.571,196.08Z" transform="translate(-182.827 -183.296)"/>
        <path id="Tracé_495" data-name="Tracé 495" d="M193.571,183.4a1.158,1.158,0,0,0-.571.88h0c.009-.047.009-.094.019-.14.009-.019.009-.037.019-.056s.009-.037.019-.056a1.147,1.147,0,0,1,.515-.627Z" transform="translate(-182.827 -172.6)"/>
        <path id="Tracé_496" data-name="Tracé 496" d="M193.571,196.08h0a1.074,1.074,0,0,1-.515-.627c-.009-.019-.009-.037-.019-.056s-.009-.037-.019-.056a.722.722,0,0,1-.019-.14h0A1.142,1.142,0,0,0,193.571,196.08Z" transform="translate(-182.827 -183.296)"/>
        <path id="Tracé_497" data-name="Tracé 497" d="M217.5,194.7" transform="translate(-205.034 -182.843)"/>
      </g>
      <g id="Groupe_640" data-name="Groupe 640" transform="translate(0 28.272)">
        <g id="Groupe_639" data-name="Groupe 639">
          <g id="Groupe_630" data-name="Groupe 630" transform="translate(0 0.262)">
            <path id="Tracé_498" data-name="Tracé 498" d="M90.514,376.082a2.915,2.915,0,0,0-4.3.094V372.9h-1.4a.576.576,0,0,0-.374.112l-.009.009a.424.424,0,0,0-.131.309.386.386,0,0,0,.14.309.542.542,0,0,0,.374.112h.552v6.588h-.552a.576.576,0,0,0-.374.112.393.393,0,0,0-.14.318.373.373,0,0,0,.14.309.542.542,0,0,0,.374.112h1.413v-.749a2.9,2.9,0,0,0,4.286.075,3.211,3.211,0,0,0,0-4.436Zm-2.143-.047a2.1,2.1,0,0,1,1.516.655,2.306,2.306,0,0,1,0,3.2,2.015,2.015,0,0,1-1.516.655,2.05,2.05,0,0,1-1.516-.655,2.181,2.181,0,0,1-.646-1.6,2.2,2.2,0,0,1,.646-1.6A2.064,2.064,0,0,1,88.371,376.035Z" transform="translate(-84.3 -372.9)" fill="#ffd200"/>
          </g>
          <g id="Groupe_631" data-name="Groupe 631" transform="translate(8.348 2.555)">
            <path id="Tracé_499" data-name="Tracé 499" d="M179.686,402.089a.381.381,0,0,0-.3-.14.466.466,0,0,0-.309.131,3.184,3.184,0,0,1-1.011.5,4.362,4.362,0,0,1-1.207.187,2.554,2.554,0,0,1-1.694-.59,2.322,2.322,0,0,1-.786-1.394H179.8v-.159a3.132,3.132,0,0,0-.88-2.321,3.067,3.067,0,0,0-2.265-.9,3.154,3.154,0,0,0-2.246.88,2.813,2.813,0,0,0-.908,2.106,3.14,3.14,0,0,0,.964,2.293,3.31,3.31,0,0,0,2.405.945,4.774,4.774,0,0,0,1.647-.29,3.191,3.191,0,0,0,1.151-.636.481.481,0,0,0,.14-.318A.494.494,0,0,0,179.686,402.089Zm-4.548-3.332a2.292,2.292,0,0,1,1.507-.505,2.377,2.377,0,0,1,1.516.515,2.117,2.117,0,0,1,.739,1.16h-4.511A2.141,2.141,0,0,1,175.138,398.757Z" transform="translate(-173.5 -397.4)" fill="#ffd200"/>
          </g>
          <g id="Groupe_632" data-name="Groupe 632" transform="translate(16.153 2.555)">
            <path id="Tracé_500" data-name="Tracé 500" d="M263.1,402.089a.381.381,0,0,0-.3-.14.466.466,0,0,0-.309.131,3.141,3.141,0,0,1-1.02.5,4.362,4.362,0,0,1-1.207.187,2.554,2.554,0,0,1-1.694-.59,2.322,2.322,0,0,1-.786-1.394H263.2v-.159a3.132,3.132,0,0,0-.88-2.321,3.067,3.067,0,0,0-2.265-.9,3.154,3.154,0,0,0-2.246.88,2.813,2.813,0,0,0-.908,2.106,3.14,3.14,0,0,0,.964,2.293,3.273,3.273,0,0,0,2.405.945,4.774,4.774,0,0,0,1.647-.29,3.11,3.11,0,0,0,1.151-.636.481.481,0,0,0,.14-.318A.441.441,0,0,0,263.1,402.089Zm-4.558-3.332a2.292,2.292,0,0,1,1.507-.505,2.377,2.377,0,0,1,1.516.515,2.117,2.117,0,0,1,.739,1.16h-4.511A2.141,2.141,0,0,1,258.538,398.757Z" transform="translate(-256.9 -397.4)" fill="#ffd200"/>
          </g>
          <g id="Groupe_633" data-name="Groupe 633" transform="translate(24.229 2.527)">
            <path id="Tracé_501" data-name="Tracé 501" d="M349.414,401.8c0,.253-.225.505-.711.824a4.2,4.2,0,0,1-2.4.7,3.116,3.116,0,0,1-2.237-.87,2.983,2.983,0,0,1-.87-2.2,3.071,3.071,0,0,1,3.154-3.154,3.3,3.3,0,0,1,1.909.58.482.482,0,0,1,.1-.243.431.431,0,0,1,.636,0,.569.569,0,0,1,.112.384v1.207a.526.526,0,0,1-.122.384.393.393,0,0,1-.318.14.441.441,0,0,1-.29-.112l-.009-.009a.513.513,0,0,1-.131-.346,1.173,1.173,0,0,0-.524-.749,2.334,2.334,0,0,0-1.4-.384,2.111,2.111,0,0,0-1.685.683,2.427,2.427,0,0,0-.58,1.6,2.115,2.115,0,0,0,.627,1.591,2.259,2.259,0,0,0,1.647.627,3.492,3.492,0,0,0,1.217-.225,3.235,3.235,0,0,0,1.114-.7.591.591,0,0,1,.346-.178.44.44,0,0,1,.29.112l.009.009A.686.686,0,0,1,349.414,401.8Z" transform="translate(-343.2 -397.1)"/>
          </g>
          <g id="Groupe_634" data-name="Groupe 634" transform="translate(31.885 2.536)">
            <path id="Tracé_502" data-name="Tracé 502" d="M430.362,398.108a3.163,3.163,0,0,0-4.445.009,3.1,3.1,0,0,0,0,4.4,3.015,3.015,0,0,0,2.227.917,3.1,3.1,0,0,0,2.218-.908,2.947,2.947,0,0,0,.917-2.2A3.017,3.017,0,0,0,430.362,398.108Zm-2.227-.037a2.224,2.224,0,0,1,1.619.655,2.142,2.142,0,0,1,.664,1.591,2.29,2.29,0,0,1-3.9,1.591,2.237,2.237,0,0,1,0-3.182A2.232,2.232,0,0,1,428.135,398.07Z" transform="translate(-425 -397.2)"/>
          </g>
          <g id="Groupe_635" data-name="Groupe 635" transform="translate(38.866 2.555)">
            <path id="Tracé_503" data-name="Tracé 503" d="M507.545,402.978a.44.44,0,0,1-.131.309l-.009.009a.559.559,0,0,1-.374.112h-1.142v-4.38a.762.762,0,0,0-.215-.571.606.606,0,0,0-.458-.215.989.989,0,0,0-.533.2,2.647,2.647,0,0,0-.664.777v3.341h.29a.527.527,0,0,1,.374.112.387.387,0,0,1,.14.309.44.44,0,0,1-.131.309l-.009.009a.559.559,0,0,1-.374.112h-1.142v-4.333a.8.8,0,0,0-.215-.6.574.574,0,0,0-.459-.225.935.935,0,0,0-.487.159,2.922,2.922,0,0,0-.739.814v3.341h.3a.527.527,0,0,1,.374.112.416.416,0,0,1,.131.318.44.44,0,0,1-.131.309l-.009.009a.559.559,0,0,1-.374.112h-1.441a.526.526,0,0,1-.374-.112.387.387,0,0,1-.14-.309.393.393,0,0,1,.14-.318.559.559,0,0,1,.374-.112h.3v-4.118h-.3a.527.527,0,0,1-.374-.112.422.422,0,0,1-.14-.318.44.44,0,0,1,.131-.309l.009-.009a.559.559,0,0,1,.374-.112h1.16v.328a1.833,1.833,0,0,1,1.207-.515,1.338,1.338,0,0,1,.814.253,1.756,1.756,0,0,1,.459.515,2.988,2.988,0,0,1,.608-.524,1.567,1.567,0,0,1,.814-.253,1.3,1.3,0,0,1,1.039.43,1.717,1.717,0,0,1,.5,1.16v3.575h.3a.527.527,0,0,1,.374.112A.319.319,0,0,1,507.545,402.978Z" transform="translate(-499.6 -397.4)"/>
          </g>
          <g id="Groupe_636" data-name="Groupe 636" transform="translate(47.794)">
            <path id="Tracé_504" data-name="Tracé 504" d="M600.755,404.8a.44.44,0,0,1-.131.309.51.51,0,0,1-.393.122h-4.726a.527.527,0,0,1-.374-.112.384.384,0,0,1-.131-.309.393.393,0,0,1,.14-.318.559.559,0,0,1,.374-.112h1.937v-4.118h-1.4a.586.586,0,0,1-.384-.112.431.431,0,0,1,0-.636.586.586,0,0,1,.384-.112H598.3v4.969h1.937a.586.586,0,0,1,.384.112A.422.422,0,0,1,600.755,404.8Z" transform="translate(-595 -396.658)"/>
            <rect id="Rectangle_1626" data-name="Rectangle 1626" width="1.104" height="1.694" transform="translate(2.181)"/>
          </g>
          <g id="Groupe_637" data-name="Groupe 637" transform="translate(55.075 2.527)">
            <path id="Tracé_505" data-name="Tracé 505" d="M679.51,402.724a.44.44,0,0,1-.131.309l-.009.009a.559.559,0,0,1-.374.112h-1.432a.586.586,0,0,1-.384-.112.431.431,0,0,1,0-.636.586.586,0,0,1,.384-.112h.29v-3.116a1.089,1.089,0,0,0-.374-.842,1.387,1.387,0,0,0-1-.346,1.749,1.749,0,0,0-.842.2,4.385,4.385,0,0,0-1.02.973v3.135h.449a.527.527,0,0,1,.374.112.384.384,0,0,1,.131.309.44.44,0,0,1-.131.309l-.009.009a.559.559,0,0,1-.374.112h-1.741a.527.527,0,0,1-.374-.112.431.431,0,0,1,0-.636.559.559,0,0,1,.374-.112h.449v-4.127h-.3a.527.527,0,0,1-.374-.112.423.423,0,0,1-.14-.318.441.441,0,0,1,.131-.309l.009-.009a.559.559,0,0,1,.374-.112h1.142v.59a3.112,3.112,0,0,1,.786-.552,2.414,2.414,0,0,1,1.086-.234,2.5,2.5,0,0,1,1.189.281,1.952,1.952,0,0,1,.7.683,1.755,1.755,0,0,1,.318.992v3.21h.3a.527.527,0,0,1,.374.112A.484.484,0,0,1,679.51,402.724Z" transform="translate(-672.8 -397.1)"/>
          </g>
          <g id="Groupe_638" data-name="Groupe 638" transform="translate(63.002 2.555)">
            <path id="Tracé_506" data-name="Tracé 506" d="M764.2,397.7a.542.542,0,0,0-.374-.112h-1.413v.7a2.805,2.805,0,0,0-4.071-.028,2.983,2.983,0,0,0,0,4.155,2.8,2.8,0,0,0,4.071-.037v1.17a1.33,1.33,0,0,1-.122.6,1.773,1.773,0,0,1-.571.646,1.434,1.434,0,0,1-.767.225l-1.525-.009a.576.576,0,0,0-.374.112.393.393,0,0,0-.14.318.373.373,0,0,0,.14.309.543.543,0,0,0,.374.112h1.516a2.2,2.2,0,0,0,.842-.14,2.89,2.89,0,0,0,.683-.449,2.009,2.009,0,0,0,.543-.618,2.047,2.047,0,0,0,.253-1.029v-5.175h.552a.576.576,0,0,0,.374-.112l.009-.009a.425.425,0,0,0,.131-.309A.36.36,0,0,0,764.2,397.7Zm-3.809,4.717a1.937,1.937,0,0,1-1.432-.6,2.161,2.161,0,0,1,0-2.967,1.922,1.922,0,0,1,1.432-.6,2.045,2.045,0,0,1,2.031,2.078,2.1,2.1,0,0,1-.6,1.488A1.937,1.937,0,0,1,760.392,402.416Z" transform="translate(-757.5 -397.4)"/>
          </g>
        </g>
      </g>
    </g>
  </g>
</svg>
